<svg
    xmlns:inkscape="http://www.inkscape.org/namespaces/inkscape"
    xmlns:rdf="http://www.w3.org/1999/02/22-rdf-syntax-ns#"
    xmlns="http://www.w3.org/2000/svg"
    xmlns:cc="http://creativecommons.org/ns#"
    xmlns:dc="http://purl.org/dc/elements/1.1/"
    xmlns:sodipodi="http://sodipodi.sourceforge.net/DTD/sodipodi-0.dtd"
    id="svg2"
    sodipodi:docname="_svgclean2.svg"
    viewBox="0 0 297 112.42"
    version="1.1"
    inkscape:version="0.48.3.1 r9886"
  >
  <sodipodi:namedview
      id="namedview8"
      bordercolor="#666666"
      inkscape:pageshadow="2"
      guidetolerance="10"
      pagecolor="#ffffff"
      gridtolerance="10"
      inkscape:window-maximized="0"
      inkscape:zoom="0.22425739"
      objecttolerance="10"
      borderopacity="1"
      inkscape:current-layer="svg2"
      inkscape:cx="372.04518"
      inkscape:cy="-413.75659"
      inkscape:window-y="0"
      inkscape:window-x="0"
      inkscape:window-width="640"
      showgrid="false"
      inkscape:pageopacity="0"
      inkscape:window-height="480"
  />
  <path
      id="path4"
      style="fill:#000000"
      inkscape:connector-curvature="0"
      d="m141.9 112.42c-0.49527-8.5184-1.6092-23.178-13.918-16.107-5.6961 2.1198-22.798 7.5124-14.529-3.6298-4.5324-11.102-22.975 5.4229-24.244-2.292 9.9194-10.649-4.7813-22.352-15.171-14.803-6.3934 1.7617-19.428 12.912-21.979 9.3755 5.9379-7.5252 19.313-22.932 3.1811-27.551-17.53-3.9759-32.933 8.0939-48.177 14.682-4.5745 3.5711-10.397 2.9486-4.7068-2.996 19.75-30.646 50.734-53.713 85.113-65.435 8.3337-2.7081 21.165-8.7042 21.417 4.9754 5.1531 12.59 8.8195 28.331 22.09 34.809 15.284 8.497 4.3279-24.527 20.162-12.052 6.6638 4.3221 20.923-3.917 22.877 0.71265-3.8826 5.5558-5.7046 15.419 4.5538 10.349 17.814-7.0078 30.899-22.705 39.67-39.223 9.1628-1.3768 18.273 5.5616 26.628 9.2475 27.745 15.71 44.866 45.394 52.137 75.658-7.5513-4.2456-14.872-12.828-24.022-16.203-9.7553-4.8742-20.758-5.7336-31.481-5.3987-5.0255 5.9898-7.9935 13.426-3.6253 20.867 3.8028 14.254-12.132-4.9058-17.885-6.2074-10.742-7.6796-21.033 3.9221-18.676 14.822-2.4291 2.1005-9.9208-3.5218-14.323-2.8693-9.0503-2.7261-15.425 1.2008-9.9726 10.613-7.9832-0.97417-19.645-13.283-26.705-1.6936-3.0779 2.8951-4.6638 8.6631-8.4056 10.345z"
  />
</svg>
