<?xml version="1.0" encoding="iso-8859-1"?>
<!-- Generator: Adobe Illustrator 21.0.0, SVG Export Plug-In . SVG Version: 6.00 Build 0)  -->
<svg xmlns="http://www.w3.org/2000/svg" xmlns:xlink="http://www.w3.org/1999/xlink" version="1.1" id="Capa_1" x="0px" y="0px" viewBox="0 0 511.334 511.334" style="enable-background:new 0 0 511.334 511.334;" xml:space="preserve" width="512" height="512">
<g id="XMLID_1_">
	<path id="XMLID_1248_" style="fill:#32393D;" d="M496.334,324.708h-28c-8.284,0-15-6.716-15-15s6.716-15,15-15h28   c8.284,0,15,6.716,15,15S504.618,324.708,496.334,324.708z"/>
	<path id="XMLID_1246_" style="fill:#49525B;" d="M39.667,324.708H15c-8.284,0-15-6.716-15-15s6.716-15,15-15h24.667   c8.284,0,15,6.716,15,15S47.951,324.708,39.667,324.708z"/>
	<path id="XMLID_1252_" style="fill:#9CA2B5;" d="M89.759,244.216H39.667c-8.284,0-15,6.716-15,15v98.666c0,8.284,6.716,15,15,15   h50.092c8.284,0,15-6.716,15-15v-98.666C104.759,250.932,98.043,244.216,89.759,244.216z"/>
	<path id="XMLID_1739_" style="fill:#707789;" d="M468.334,244.216h-50.092c-8.284,0-15,6.716-15,15v98.666c0,8.284,6.716,15,15,15   h50.092c8.284,0,15-6.716,15-15v-98.666C483.334,250.932,476.618,244.216,468.334,244.216z"/>
	<path id="XMLID_1253_" style="fill:#49525B;" d="M254,171.015c-8.284,0-15-6.716-15-15V93.882c0-8.284,6.716-15,15-15   s15,6.716,15,15v62.133C269,164.299,262.284,171.015,254,171.015z"/>
	<path id="XMLID_71_" style="fill:#32393D;" d="M254,78.882v92.133c8.284,0,15-6.716,15-15V93.882   C269,85.598,262.284,78.882,254,78.882z"/>
	<path id="XMLID_842_" style="fill:#CDD2E1;" d="M361.487,141.015H146.514c-39.565,0-71.755,32.189-71.755,71.755v201.927   c0,39.566,32.189,71.756,71.755,71.756h214.974c39.565,0,71.755-32.189,71.755-71.756V212.77   C433.242,173.204,401.053,141.015,361.487,141.015z"/>
	<path id="XMLID_70_" style="fill:#9CA2B5;" d="M361.487,141.015H254v345.438h107.487c39.565,0,71.755-32.189,71.755-71.756V212.77   C433.242,173.204,401.053,141.015,361.487,141.015z"/>
	<path id="XMLID_848_" style="fill:#E3FBFF;" d="M179.973,211.208c-24.904,0-45.165,20.261-45.165,45.165   s20.261,45.165,45.165,45.165s45.165-20.261,45.165-45.165S204.877,211.208,179.973,211.208z"/>
	<path id="XMLID_845_" style="fill:#97E9FF;" d="M326.165,211.208c-24.904,0-45.165,20.261-45.165,45.165   s20.261,45.165,45.165,45.165s45.165-20.261,45.165-45.165S351.069,211.208,326.165,211.208z"/>
	<path id="XMLID_1278_" style="fill:#9CA2B5;" d="M254,343.041c-8.284,0-15-6.716-15-15v-18.333c0-8.284,6.716-15,15-15   s15,6.716,15,15v18.333C269,336.325,262.284,343.041,254,343.041z"/>
	<path id="XMLID_844_" style="fill:#95E8C8;" d="M254,24.882c-23.159,0-42,18.841-42,42s18.841,42,42,42s42-18.841,42-42   S277.159,24.882,254,24.882z"/>
	
		<path id="XMLID_3_" style="fill:none;stroke:#000000;stroke-width:30;stroke-linecap:round;stroke-linejoin:round;stroke-miterlimit:10;" d="   M287,370.415"/>
	<path id="XMLID_1245_" style="fill:#49525B;" d="M293,393.081h-78c-8.284,0-15-6.716-15-15s6.716-15,15-15h78   c8.284,0,15,6.716,15,15S301.284,393.081,293,393.081z"/>
	<path id="XMLID_1244_" style="fill:#9CA2B5;" d="M254.25,435.749h-0.499c-8.284,0-15-6.716-15-15s6.716-15,15-15h0.499   c8.284,0,15,6.716,15,15S262.534,435.749,254.25,435.749z"/>
	<path id="XMLID_72_" style="fill:#707789;" d="M254.25,405.749H254v30h0.25c8.284,0,15-6.716,15-15S262.534,405.749,254.25,405.749   z"/>
	<path id="XMLID_78_" style="fill:#32393D;" d="M293,363.081h-39v30h39c8.284,0,15-6.716,15-15S301.284,363.081,293,363.081z"/>
	<path id="XMLID_814_" style="fill:#707789;" d="M254,294.708v48.333c8.284,0,15-6.716,15-15v-18.333   C269,301.424,262.284,294.708,254,294.708z"/>
	<path id="XMLID_904_" style="fill:#5DC694;" d="M254,24.882v84c23.159,0,42-18.841,42-42S277.159,24.882,254,24.882z"/>
</g>















</svg>
