<svg id="Capa_1" enable-background="new 0 0 512 512" height="512" viewBox="0 0 512 512" width="512" xmlns="http://www.w3.org/2000/svg"><g><path d="m30 197h452v300h-452z" fill="#ecf2ff"/><path d="m256 197h226v300h-226z" fill="#d9e5ff"/><path d="m60 197h166v300h-166z" fill="#ff8b17"/><g><path d="m452 182v225c0 8.284-6.716 15-15 15h-166c-8.284 0-15-6.716-15-15v-225z" fill="#3dccb4"/></g><g><g><g><path d="m181 392c-8.291 0-15-6.709-15-15v-30c0-8.291 6.709-15 15-15s15 6.709 15 15v30c0 8.291-6.709 15-15 15z" fill="#fb3"/></g></g></g><g><path d="m294.291 390.418c-7.412-3.706-10.4-12.715-6.709-20.127l30-60c3.721-7.397 12.715-10.371 20.127-6.709 7.412 3.706 10.4 12.715 6.709 20.127l-30 60c-3.654 7.288-12.542 10.45-20.127 6.709z" fill="#5ce6b8"/></g><g><path d="m370.291 390.418c-7.412-3.706-10.4-12.715-6.709-20.127l30-60c3.721-7.397 12.715-10.371 20.127-6.709 7.412 3.706 10.4 12.715 6.709 20.127l-30 60c-3.654 7.288-12.542 10.45-20.127 6.709z" fill="#5ce6b8"/></g><path d="m512 497c0 8.399-6.599 15-15 15h-482c-8.401 0-15-6.601-15-15 0-8.401 6.599-15 15-15h482c8.401 0 15 6.599 15 15z" fill="#5ce6b8"/><path d="m512 497c0 8.399-6.599 15-15 15h-241v-30h241c8.401 0 15 6.599 15 15z" fill="#3dccb4"/><path d="m452 15v107h-392v-107c0-8.401 6.599-15 15-15h362c8.401 0 15 6.599 15 15z" fill="#3f6a73"/><path d="m452 122h-196v-122h181c8.401 0 15 6.599 15 15z" fill="#285059"/><g><path d="m483.712 182h-98.712l-15.5 15 15.5 11.25c0 35.208 28.042 63.75 63.25 63.75s63.75-28.542 63.75-63.75v-11.25z" fill="#cc2935"/><path d="m256 182-15 15 15 11.25c0 35.208 28.542 63.75 63.75 63.75s65.25-28.542 65.25-63.75v-26.25z" fill="#ff8b17"/><path d="m129 182-15.5 15 15.5 11.25c0 35.208 28.042 63.75 63.25 63.75s63.75-28.542 63.75-63.75v-26.25z" fill="#e64551"/><path d="m27.686 182-27.686 15v11.25c0 35.208 28.543 63.75 63.75 63.75s65.25-28.542 65.25-63.75v-26.25z" fill="#fb3"/><path d="m509.757 188.68-57.757-96.68h-105l-11.463 54.705 49.463 50.295h127c.006-2.867-.531-5.753-2.243-8.32z" fill="#e64551"/><path d="m256 92-30 48.639 30 56.361h129l-38-105z" fill="#fb3"/><path d="m256 92h-90l-47.704 49.572 10.704 55.428h127z" fill="#f66"/><path d="m60 92-57.757 96.68c-1.712 2.567-2.248 5.453-2.243 8.32h129l37-105z" fill="#ffd34d"/></g></g></svg>