<svg height="474pt" viewBox="-26 0 474 474.92825" width="474pt" xmlns="http://www.w3.org/2000/svg"><path d="m211.121094 304c-57.34375-.027344-107.667969-38.214844-123.132813-93.4375-15.460937-55.222656 7.710938-113.988281 56.699219-143.792969 48.992188-29.808593 111.835938-23.375 153.769531 15.742188 41.933594 39.121093 52.710938 101.363281 26.378907 152.304687-2.101563 3.792969-6.835938 5.222656-10.683594 3.230469-3.847656-1.996094-5.40625-6.691406-3.519532-10.589844 8.265626-15.890625 12.550782-33.546875 12.488282-51.457031-.015625-50.902344-34.371094-95.386719-83.613282-108.273438-49.242187-12.886718-100.984374 9.066407-125.933593 53.433594-24.949219 44.371094-16.832031 99.984375 19.761719 135.367188 36.59375 35.382812 92.449218 41.628906 135.953124 15.199218 3.773438-2.296874 8.699219-1.105468 10.996094 2.667969 2.300782 3.773438 1.105469 8.699219-2.667968 10.996094-20.035157 12.1875-43.042969 18.625-66.496094 18.609375zm0 0"/><path d="m294.1875 270.601562c-3.269531 0-6.207031-1.988281-7.425781-5.019531s-.46875-6.496093 1.890625-8.757812c3.074218-2.949219 5.980468-6.070313 8.703125-9.34375 1.808593-2.257813 4.691406-3.363281 7.546875-2.890625 2.851562.472656 5.230468 2.445312 6.214844 5.164062.988281 2.71875.429687 5.757813-1.457032 7.949219-3.109375 3.742187-6.429687 7.304687-9.9375 10.671875-1.488281 1.429688-3.472656 2.226562-5.535156 2.226562zm0 0"/><path d="m241.523438 233.945312c-3.386719-.015624-6.679688-1.105468-9.410157-3.113281l-20.992187-15.28125-21.023438 15.28125c-5.605468 4.082031-13.207031 4.085938-18.820312.011719-5.609375-4.074219-7.957032-11.304688-5.8125-17.898438l8-24.722656-21.023438-15.277344c-5.613281-4.078124-7.957031-11.308593-5.804687-17.90625 2.152343-6.597656 8.308593-11.054687 15.246093-11.039062h25.992188l8-24.71875c2.15625-6.566406 8.289062-11.003906 15.199219-11.003906 6.910156 0 13.042969 4.4375 15.199219 11.003906l8 24.71875h25.992187c6.933594 0 13.078125 4.460938 15.21875 11.054688 2.144531 6.59375-.203125 13.816406-5.808594 17.890624l-20.953125 15.277344 8.039063 24.722656c2.21875 6.589844-.144531 13.859376-5.816407 17.886719-2.730468 2.011719-6.03125 3.101563-9.421874 3.113281zm-79.640626-73.945312 21.03125 15.28125c5.605469 4.078125 7.945313 11.296875 5.800782 17.886719l-8 24.71875 21.023437-15.277344c5.605469-4.09375 13.210938-4.09375 18.816407 0l20.96875 15.277344-8-24.71875c-2.144532-6.589844.199218-13.8125 5.808593-17.886719l21.03125-15.28125h-25.992187c-6.945313.011719-13.101563-4.453125-15.25-11.054688l-8-24.722656v-.09375l-8 24.800782c-2.136719 6.609374-8.300782 11.082031-15.246094 11.070312zm0 0"/><path d="m333.136719 474.929688c-2.761719.015624-5.339844-1.394532-6.8125-3.730469l-64-102.855469 13.597656-8.457031 54.320313 87.234375 11.570312-42.5625c1.03125-3.796875 4.667969-6.28125 8.582031-5.855469l47.902344 5.183594-55.316406-88.894531 13.597656-8.457032 64 102.847656c1.621094 2.601563 1.613281 5.894532-.015625 8.488282s-4.59375 4.027344-7.640625 3.695312l-57.457031-6.222656-14.589844 53.679688c-.835938 3.070312-3.410156 5.355468-6.558594 5.816406-.390625.0625-.785156.089844-1.179687.089844zm0 0"/><path d="m89.105469 474.929688c-.390625 0-.78125-.027344-1.167969-.089844-3.148438-.460938-5.722656-2.746094-6.558594-5.816406l-14.59375-53.679688-57.453125 6.257812c-3.046875.332032-6.011719-1.105468-7.640625-3.699218s-1.6367185-5.886719-.015625-8.488282l64-102.847656 13.597657 8.457032-55.351563 88.863281 47.90625-5.183594c3.910156-.425781 7.550781 2.058594 8.582031 5.855469l11.570313 42.5625 54.34375-87.273438 13.597656 8.457032-64 102.894531c-1.476563 2.335937-4.050781 3.746093-6.816406 3.730469zm0 0"/><path d="m211.121094 352c-97.199219 0-176-78.796875-176-176s78.800781-176 176-176c97.203125 0 176 78.796875 176 176-.109375 97.15625-78.84375 175.890625-176 176zm0-336c-88.363282 0-160 71.632812-160 160s71.636718 160 160 160c88.367187 0 160-71.632812 160-160-.101563-88.324219-71.675782-159.898438-160-160zm0 0"/></svg>